<?xml version="1.0" encoding="UTF-8"?>
<mxfile host="app.diagrams.net" modified="2024-12-19T10:00:00.000Z" agent="Mozilla/5.0" version="24.7.17" etag="usecase-scenarios" type="device">
  <diagram name="Use Case Detailed Scenarios - Algorithm Learning Process" id="usecase-scenarios">
    <mxGraphModel dx="1862" dy="1120" grid="1" gridSize="10" guides="1" tooltips="1" connect="1" arrows="1" fold="1" page="1" pageScale="1" pageWidth="1400" pageHeight="1000" math="0" shadow="0">
      <root>
        <mxCell id="0"/>
        <mxCell id="1" parent="0"/>
        
        <!-- Title -->
        <mxCell id="title" value="Use Case Detailed Scenarios - Algorithm Learning Process Module" style="text;html=1;align=center;verticalAlign=middle;whiteSpace=wrap;rounded=0;fontSize=18;fontStyle=1" vertex="1" parent="1">
          <mxGeometry x="200" y="30" width="1000" height="30" as="geometry"/>
        </mxCell>

        <!-- Main System Boundary -->
        <mxCell id="system-boundary" value="DSA Visualizer - Algorithm Learning Process" style="rounded=1;whiteSpace=wrap;html=1;fontSize=14;fontStyle=1;fillColor=#f8cecc;strokeColor=#b85450;strokeWidth=3;verticalAlign=top" vertex="1" parent="1">
          <mxGeometry x="150" y="80" width="1100" height="850" as="geometry"/>
        </mxCell>

        <!-- Primary Actor -->
        <mxCell id="student-actor" value="Student" style="shape=umlActor;verticalLabelPosition=bottom;verticalAlign=top;html=1;outlineConnect=0;fontSize=14;fillColor=#d5e8d4;strokeColor=#82b366" vertex="1" parent="1">
          <mxGeometry x="50" y="450" width="50" height="100" as="geometry"/>
        </mxCell>

        <!-- Supporting Actors -->
        <mxCell id="ai-assistant" value="AI Assistant" style="shape=umlActor;verticalLabelPosition=bottom;verticalAlign=top;html=1;outlineConnect=0;fontSize=12;fillColor=#dae8fc;strokeColor=#6c8ebf" vertex="1" parent="1">
          <mxGeometry x="1320" y="200" width="40" height="80" as="geometry"/>
        </mxCell>

        <mxCell id="assessment-system" value="Assessment&#xa;System" style="shape=umlActor;verticalLabelPosition=bottom;verticalAlign=top;html=1;outlineConnect=0;fontSize=12;fillColor=#fff2cc;strokeColor=#d6b656" vertex="1" parent="1">
          <mxGeometry x="1320" y="400" width="40" height="80" as="geometry"/>
        </mxCell>

        <mxCell id="progress-tracker" value="Progress&#xa;Tracker" style="shape=umlActor;verticalLabelPosition=bottom;verticalAlign=top;html=1;outlineConnect=0;fontSize=12;fillColor=#e1d5e7;strokeColor=#9673a6" vertex="1" parent="1">
          <mxGeometry x="1320" y="700" width="40" height="80" as="geometry"/>
        </mxCell>

        <!-- Primary Use Cases -->
        <mxCell id="start-learning-session" value="Start Learning&#xa;Session" style="ellipse;whiteSpace=wrap;html=1;fontSize=11;fillColor=#d5e8d4;strokeColor=#82b366;fontStyle=1" vertex="1" parent="1">
          <mxGeometry x="220" y="140" width="120" height="70" as="geometry"/>
        </mxCell>

        <mxCell id="select-algorithm" value="Select Algorithm&#xa;to Learn" style="ellipse;whiteSpace=wrap;html=1;fontSize=11;fillColor=#d5e8d4;strokeColor=#82b366" vertex="1" parent="1">
          <mxGeometry x="380" y="140" width="120" height="70" as="geometry"/>
        </mxCell>

        <mxCell id="study-theory" value="Study Algorithm&#xa;Theory" style="ellipse;whiteSpace=wrap;html=1;fontSize=11;fillColor=#d5e8d4;strokeColor=#82b366" vertex="1" parent="1">
          <mxGeometry x="540" y="140" width="120" height="70" as="geometry"/>
        </mxCell>

        <mxCell id="practice-visualization" value="Practice with&#xa;Visualization" style="ellipse;whiteSpace=wrap;html=1;fontSize=11;fillColor=#ffe6cc;strokeColor=#d79b00" vertex="1" parent="1">
          <mxGeometry x="220" y="260" width="120" height="70" as="geometry"/>
        </mxCell>

        <mxCell id="solve-practice-problems" value="Solve Practice&#xa;Problems" style="ellipse;whiteSpace=wrap;html=1;fontSize=11;fillColor=#d5e8d4;strokeColor=#82b366" vertex="1" parent="1">
          <mxGeometry x="380" y="260" width="120" height="70" as="geometry"/>
        </mxCell>

        <mxCell id="take-assessment" value="Take Assessment&#xa;Quiz" style="ellipse;whiteSpace=wrap;html=1;fontSize=11;fillColor=#fff2cc;strokeColor=#d6b656" vertex="1" parent="1">
          <mxGeometry x="540" y="260" width="120" height="70" as="geometry"/>
        </mxCell>

        <!-- Advanced Features -->
        <mxCell id="get-ai-help" value="Get AI&#xa;Assistance" style="ellipse;whiteSpace=wrap;html=1;fontSize=11;fillColor=#dae8fc;strokeColor=#6c8ebf" vertex="1" parent="1">
          <mxGeometry x="700" y="140" width="120" height="70" as="geometry"/>
        </mxCell>

        <mxCell id="analyze-mistakes" value="Analyze&#xa;Mistakes" style="ellipse;whiteSpace=wrap;html=1;fontSize=11;fillColor=#dae8fc;strokeColor=#6c8ebf" vertex="1" parent="1">
          <mxGeometry x="700" y="260" width="120" height="70" as="geometry"/>
        </mxCell>

        <mxCell id="track-progress" value="Track Learning&#xa;Progress" style="ellipse;whiteSpace=wrap;html=1;fontSize=11;fillColor=#e1d5e7;strokeColor=#9673a6" vertex="1" parent="1">
          <mxGeometry x="860" y="140" width="120" height="70" as="geometry"/>
        </mxCell>

        <mxCell id="receive-recommendations" value="Receive&#xa;Recommendations" style="ellipse;whiteSpace=wrap;html=1;fontSize=11;fillColor=#e1d5e7;strokeColor=#9673a6" vertex="1" parent="1">
          <mxGeometry x="860" y="260" width="120" height="70" as="geometry"/>
        </mxCell>

        <!-- Supporting Use Cases -->
        <mxCell id="access-algorithm-library" value="Access Algorithm&#xa;Library" style="ellipse;whiteSpace=wrap;html=1;fontSize=10;fillColor=#f6ffed;strokeColor=#52c41a" vertex="1" parent="1">
          <mxGeometry x="220" y="380" width="110" height="60" as="geometry"/>
        </mxCell>

        <mxCell id="view-complexity-analysis" value="View Complexity&#xa;Analysis" style="ellipse;whiteSpace=wrap;html=1;fontSize=10;fillColor=#f6ffed;strokeColor=#52c41a" vertex="1" parent="1">
          <mxGeometry x="360" y="380" width="110" height="60" as="geometry"/>
        </mxCell>

        <mxCell id="compare-algorithms" value="Compare&#xa;Algorithms" style="ellipse;whiteSpace=wrap;html=1;fontSize=10;fillColor=#f6ffed;strokeColor=#52c41a" vertex="1" parent="1">
          <mxGeometry x="500" y="380" width="110" height="60" as="geometry"/>
        </mxCell>

        <mxCell id="access-learning-materials" value="Access Learning&#xa;Materials" style="ellipse;whiteSpace=wrap;html=1;fontSize=10;fillColor=#f6ffed;strokeColor=#52c41a" vertex="1" parent="1">
          <mxGeometry x="640" y="380" width="110" height="60" as="geometry"/>
        </mxCell>

        <mxCell id="save-learning-session" value="Save Learning&#xa;Session" style="ellipse;whiteSpace=wrap;html=1;fontSize=10;fillColor=#f6ffed;strokeColor=#52c41a" vertex="1" parent="1">
          <mxGeometry x="780" y="380" width="110" height="60" as="geometry"/>
        </mxCell>

        <mxCell id="generate-study-report" value="Generate Study&#xa;Report" style="ellipse;whiteSpace=wrap;html=1;fontSize=10;fillColor=#f6ffed;strokeColor=#52c41a" vertex="1" parent="1">
          <mxGeometry x="920" y="380" width="110" height="60" as="geometry"/>
        </mxCell>

        <!-- Detailed Scenarios -->
        <mxCell id="scenario-1" value="Scenario 1: First Time Learning&#xa;• Student explores algorithm library&#xa;• Selects sorting algorithm (Quick Sort)&#xa;• Studies theory with interactive examples&#xa;• Practices with visualization tool&#xa;• Completes guided exercises&#xa;• Takes assessment quiz&#xa;• Receives personalized feedback" style="rounded=1;whiteSpace=wrap;html=1;fontSize=10;align=left;verticalAlign=top;fillColor=#f0f9ff;strokeColor=#1890ff" vertex="1" parent="1">
          <mxGeometry x="180" y="500" width="200" height="140" as="geometry"/>
        </mxCell>

        <mxCell id="scenario-2" value="Scenario 2: Advanced Learning&#xa;• Student has basic knowledge&#xa;• Selects complex algorithm (Dijkstra)&#xa;• Uses AI assistant for clarification&#xa;• Compares with other algorithms&#xa;• Analyzes time/space complexity&#xa;• Solves challenging problems&#xa;• Reviews performance analytics" style="rounded=1;whiteSpace=wrap;html=1;fontSize=10;align=left;verticalAlign=top;fillColor=#f6ffed;strokeColor=#52c41a" vertex="1" parent="1">
          <mxGeometry x="400" y="500" width="200" height="140" as="geometry"/>
        </mxCell>

        <mxCell id="scenario-3" value="Scenario 3: Review &amp; Practice&#xa;• Student revisits learned algorithm&#xa;• Accesses saved learning sessions&#xa;• Practices with different input sizes&#xa;• Takes timed assessments&#xa;• Analyzes mistakes and gaps&#xa;• Gets recommendations for improvement&#xa;• Updates learning progress" style="rounded=1;whiteSpace=wrap;html=1;fontSize=10;align=left;verticalAlign=top;fillColor=#fff7e6;strokeColor=#d48806" vertex="1" parent="1">
          <mxGeometry x="620" y="500" width="200" height="140" as="geometry"/>
        </mxCell>

        <mxCell id="scenario-4" value="Scenario 4: Exam Preparation&#xa;• Student prepares for assessment&#xa;• Reviews multiple algorithms&#xa;• Takes practice tests&#xa;• Identifies weak areas&#xa;• Gets targeted study materials&#xa;• Tracks preparation progress&#xa;• Achieves certification" style="rounded=1;whiteSpace=wrap;html=1;fontSize=10;align=left;verticalAlign=top;fillColor=#fff0f6;strokeColor=#d48fb1" vertex="1" parent="1">
          <mxGeometry x="840" y="500" width="200" height="140" as="geometry"/>
        </mxCell>

        <!-- Learning Path Flow -->
        <mxCell id="learning-path" value="Learning Path Flow" style="rounded=1;whiteSpace=wrap;html=1;fontSize=12;fontStyle=1;fillColor=#e6f7ff;strokeColor=#1890ff" vertex="1" parent="1">
          <mxGeometry x="200" y="680" width="800" height="80" as="geometry"/>
        </mxCell>

        <mxCell id="step1" value="1. Explore" style="rounded=1;whiteSpace=wrap;html=1;fontSize=10;fillColor=#f0f9ff;strokeColor=#1677ff" vertex="1" parent="1">
          <mxGeometry x="220" y="700" width="80" height="40" as="geometry"/>
        </mxCell>

        <mxCell id="step2" value="2. Select" style="rounded=1;whiteSpace=wrap;html=1;fontSize=10;fillColor=#f0f9ff;strokeColor=#1677ff" vertex="1" parent="1">
          <mxGeometry x="320" y="700" width="80" height="40" as="geometry"/>
        </mxCell>

        <mxCell id="step3" value="3. Study" style="rounded=1;whiteSpace=wrap;html=1;fontSize=10;fillColor=#f0f9ff;strokeColor=#1677ff" vertex="1" parent="1">
          <mxGeometry x="420" y="700" width="80" height="40" as="geometry"/>
        </mxCell>

        <mxCell id="step4" value="4. Practice" style="rounded=1;whiteSpace=wrap;html=1;fontSize=10;fillColor=#f0f9ff;strokeColor=#1677ff" vertex="1" parent="1">
          <mxGeometry x="520" y="700" width="80" height="40" as="geometry"/>
        </mxCell>

        <mxCell id="step5" value="5. Assess" style="rounded=1;whiteSpace=wrap;html=1;fontSize=10;fillColor=#f0f9ff;strokeColor=#1677ff" vertex="1" parent="1">
          <mxGeometry x="620" y="700" width="80" height="40" as="geometry"/>
        </mxCell>

        <mxCell id="step6" value="6. Review" style="rounded=1;whiteSpace=wrap;html=1;fontSize=10;fillColor=#f0f9ff;strokeColor=#1677ff" vertex="1" parent="1">
          <mxGeometry x="720" y="700" width="80" height="40" as="geometry"/>
        </mxCell>

        <mxCell id="step7" value="7. Advance" style="rounded=1;whiteSpace=wrap;html=1;fontSize=10;fillColor=#f0f9ff;strokeColor=#1677ff" vertex="1" parent="1">
          <mxGeometry x="820" y="700" width="80" height="40" as="geometry"/>
        </mxCell>

        <!-- Exception Scenarios -->
        <mxCell id="exceptions" value="Exception Scenarios" style="rounded=1;whiteSpace=wrap;html=1;fontSize=12;fontStyle=1;fillColor=#ffefef;strokeColor=#ff4d4f" vertex="1" parent="1">
          <mxGeometry x="200" y="790" width="800" height="120" as="geometry"/>
        </mxCell>

        <mxCell id="exception1" value="• Algorithm selection fails → Show error message, suggest alternatives" style="text;html=1;align=left;verticalAlign=middle;whiteSpace=wrap;rounded=0;fontSize=10" vertex="1" parent="1">
          <mxGeometry x="220" y="815" width="350" height="20" as="geometry"/>
        </mxCell>

        <mxCell id="exception2" value="• Visualization timeout → Reduce input size, optimize rendering" style="text;html=1;align=left;verticalAlign=middle;whiteSpace=wrap;rounded=0;fontSize=10" vertex="1" parent="1">
          <mxGeometry x="220" y="835" width="350" height="20" as="geometry"/>
        </mxCell>

        <mxCell id="exception3" value="• Assessment submission fails → Auto-save progress, retry mechanism" style="text;html=1;align=left;verticalAlign=middle;whiteSpace=wrap;rounded=0;fontSize=10" vertex="1" parent="1">
          <mxGeometry x="220" y="855" width="350" height="20" as="geometry"/>
        </mxCell>

        <mxCell id="exception4" value="• AI assistance unavailable → Provide offline help materials" style="text;html=1;align=left;verticalAlign=middle;whiteSpace=wrap;rounded=0;fontSize=10" vertex="1" parent="1">
          <mxGeometry x="220" y="875" width="350" height="20" as="geometry"/>
        </mxCell>

        <mxCell id="exception5" value="• Progress sync fails → Store locally, sync when connection restored" style="text;html=1;align=left;verticalAlign=middle;whiteSpace=wrap;rounded=0;fontSize=10" vertex="1" parent="1">
          <mxGeometry x="580" y="815" width="350" height="20" as="geometry"/>
        </mxCell>

        <mxCell id="exception6" value="• User session expires → Auto-save state, seamless re-authentication" style="text;html=1;align=left;verticalAlign=middle;whiteSpace=wrap;rounded=0;fontSize=10" vertex="1" parent="1">
          <mxGeometry x="580" y="835" width="350" height="20" as="geometry"/>
        </mxCell>

        <!-- Actor Connections -->
        <mxCell id="student-conn1" style="endArrow=none;html=1;rounded=0;exitX=1;exitY=0.3333333333333333;exitDx=0;exitDy=0;exitPerimeter=0;entryX=0;entryY=0.5;entryDx=0;entryDy=0" edge="1" parent="1" source="student-actor" target="start-learning-session">
          <mxGeometry width="50" height="50" relative="1" as="geometry">
            <mxPoint x="400" y="400" as="sourcePoint"/>
            <mxPoint x="450" y="350" as="targetPoint"/>
          </mxGeometry>
        </mxCell>

        <mxCell id="ai-conn1" style="endArrow=none;html=1;rounded=0;exitX=0;exitY=0.3333333333333333;exitDx=0;exitDy=0;exitPerimeter=0;entryX=1;entryY=0.5;entryDx=0;entryDy=0" edge="1" parent="1" source="ai-assistant" target="get-ai-help">
          <mxGeometry width="50" height="50" relative="1" as="geometry">
            <mxPoint x="1200" y="300" as="sourcePoint"/>
            <mxPoint x="820" y="175" as="targetPoint"/>
          </mxGeometry>
        </mxCell>

        <mxCell id="assessment-conn1" style="endArrow=none;html=1;rounded=0;exitX=0;exitY=0.3333333333333333;exitDx=0;exitDy=0;exitPerimeter=0;entryX=1;entryY=0.5;entryDx=0;entryDy=0" edge="1" parent="1" source="assessment-system" target="take-assessment">
          <mxGeometry width="50" height="50" relative="1" as="geometry">
            <mxPoint x="1200" y="500" as="sourcePoint"/>
            <mxPoint x="660" y="295" as="targetPoint"/>
          </mxGeometry>
        </mxCell>

        <mxCell id="progress-conn1" style="endArrow=none;html=1;rounded=0;exitX=0;exitY=0.3333333333333333;exitDx=0;exitDy=0;exitPerimeter=0;entryX=1;entryY=0.5;entryDx=0;entryDy=0" edge="1" parent="1" source="progress-tracker" target="track-progress">
          <mxGeometry width="50" height="50" relative="1" as="geometry">
            <mxPoint x="1200" y="700" as="sourcePoint"/>
            <mxPoint x="980" y="175" as="targetPoint"/>
            <Array as="points">
              <mxPoint x="1200" y="726"/>
              <mxPoint x="1200" y="175"/>
            </Array>
          </mxGeometry>
        </mxCell>

        <!-- Include/Extend Relationships -->
        <mxCell id="include1" style="endArrow=open;dashed=1;html=1;rounded=0;exitX=1;exitY=0.5;exitDx=0;exitDy=0;entryX=0;entryY=0.5;entryDx=0;entryDy=0" edge="1" parent="1" source="select-algorithm" target="access-algorithm-library">
          <mxGeometry width="50" height="50" relative="1" as="geometry">
            <mxPoint x="500" y="175" as="sourcePoint"/>
            <mxPoint x="220" y="410" as="targetPoint"/>
            <Array as="points">
              <mxPoint x="500" y="175"/>
              <mxPoint x="500" y="350"/>
              <mxPoint x="180" y="350"/>
              <mxPoint x="180" y="410"/>
            </Array>
          </mxGeometry>
        </mxCell>

        <mxCell id="include1-label" value="&lt;&lt;include&gt;&gt;" style="text;html=1;align=center;verticalAlign=middle;whiteSpace=wrap;rounded=0;fontSize=8" vertex="1" parent="1">
          <mxGeometry x="180" y="350" width="50" height="15" as="geometry"/>
        </mxCell>

        <mxCell id="extend1" style="endArrow=open;dashed=1;html=1;rounded=0;exitX=0.5;exitY=1;exitDx=0;exitDy=0;entryX=0.5;entryY=0;entryDx=0;entryDy=0;strokeColor=#ff6666" edge="1" parent="1" source="study-theory" target="view-complexity-analysis">
          <mxGeometry width="50" height="50" relative="1" as="geometry">
            <mxPoint x="600" y="210" as="sourcePoint"/>
            <mxPoint x="415" y="380" as="targetPoint"/>
            <Array as="points">
              <mxPoint x="600" y="350"/>
              <mxPoint x="415" y="350"/>
            </Array>
          </mxGeometry>
        </mxCell>

        <mxCell id="extend1-label" value="&lt;&lt;extend&gt;&gt;" style="text;html=1;align=center;verticalAlign=middle;whiteSpace=wrap;rounded=0;fontSize=8" vertex="1" parent="1">
          <mxGeometry x="485" y="350" width="50" height="15" as="geometry"/>
        </mxCell>

        <!-- Flow Arrows -->
        <mxCell id="flow1" style="endArrow=classic;html=1;rounded=0;exitX=1;exitY=0.5;exitDx=0;exitDy=0;entryX=0;entryY=0.5;entryDx=0;entryDy=0;strokeWidth=2;strokeColor=#1890ff" edge="1" parent="1" source="step1" target="step2">
          <mxGeometry width="50" height="50" relative="1" as="geometry">
            <mxPoint x="400" y="600" as="sourcePoint"/>
            <mxPoint x="450" y="550" as="targetPoint"/>
          </mxGeometry>
        </mxCell>

        <mxCell id="flow2" style="endArrow=classic;html=1;rounded=0;exitX=1;exitY=0.5;exitDx=0;exitDy=0;entryX=0;entryY=0.5;entryDx=0;entryDy=0;strokeWidth=2;strokeColor=#1890ff" edge="1" parent="1" source="step2" target="step3">
          <mxGeometry width="50" height="50" relative="1" as="geometry">
            <mxPoint x="310" y="730" as="sourcePoint"/>
            <mxPoint x="330" y="730" as="targetPoint"/>
          </mxGeometry>
        </mxCell>

        <mxCell id="flow3" style="endArrow=classic;html=1;rounded=0;exitX=1;exitY=0.5;exitDx=0;exitDy=0;entryX=0;entryY=0.5;entryDx=0;entryDy=0;strokeWidth=2;strokeColor=#1890ff" edge="1" parent="1" source="step3" target="step4">
          <mxGeometry width="50" height="50" relative="1" as="geometry">
            <mxPoint x="410" y="730" as="sourcePoint"/>
            <mxPoint x="430" y="730" as="targetPoint"/>
          </mxGeometry>
        </mxCell>

        <mxCell id="flow4" style="endArrow=classic;html=1;rounded=0;exitX=1;exitY=0.5;exitDx=0;exitDy=0;entryX=0;entryY=0.5;entryDx=0;entryDy=0;strokeWidth=2;strokeColor=#1890ff" edge="1" parent="1" source="step4" target="step5">
          <mxGeometry width="50" height="50" relative="1" as="geometry">
            <mxPoint x="510" y="730" as="sourcePoint"/>
            <mxPoint x="530" y="730" as="targetPoint"/>
          </mxGeometry>
        </mxCell>

        <mxCell id="flow5" style="endArrow=classic;html=1;rounded=0;exitX=1;exitY=0.5;exitDx=0;exitDy=0;entryX=0;entryY=0.5;entryDx=0;entryDy=0;strokeWidth=2;strokeColor=#1890ff" edge="1" parent="1" source="step5" target="step6">
          <mxGeometry width="50" height="50" relative="1" as="geometry">
            <mxPoint x="610" y="730" as="sourcePoint"/>
            <mxPoint x="630" y="730" as="targetPoint"/>
          </mxGeometry>
        </mxCell>

        <mxCell id="flow6" style="endArrow=classic;html=1;rounded=0;exitX=1;exitY=0.5;exitDx=0;exitDy=0;entryX=0;entryY=0.5;entryDx=0;entryDy=0;strokeWidth=2;strokeColor=#1890ff" edge="1" parent="1" source="step6" target="step7">
          <mxGeometry width="50" height="50" relative="1" as="geometry">
            <mxPoint x="710" y="730" as="sourcePoint"/>
            <mxPoint x="730" y="730" as="targetPoint"/>
          </mxGeometry>
        </mxCell>

      </root>
    </mxGraphModel>
  </diagram>
</mxfile>
